<svg xmlns="http://www.w3.org/2000/svg" data-name="Layer 1" viewBox="0 0 48 48" id="mail"><path fill="#065387" d="M41,41H7a4,4,0,0,1-4-4V11A4,4,0,0,1,7,7H41a4,4,0,0,1,4,4V37A4,4,0,0,1,41,41ZM7,9a2,2,0,0,0-2,2V37a2,2,0,0,0,2,2H41a2,2,0,0,0,2-2V11a2,2,0,0,0-2-2Z"></path><path fill="#065387" d="M44.61,12.79,43,14l-4.17,3.25L28.19,25.56a6.82,6.82,0,0,1-8.38,0L3.39,12.79a1,1,0,0,1,1.22-1.58L21,24A5,5,0,0,0,27,24L39.54,14.2,43,11.51l.39-.3a1,1,0,1,1,1.22,1.58Z"></path><path fill="#065387" d="M4 37a1 1 0 0 1-.61-1.79l15.43-12A1 1 0 1 1 20 24.79l-15.43 12A1 1 0 0 1 4 37zM44 37a1 1 0 0 1-.61-.21L28 24.79a1 1 0 1 1 1.22-1.58l15.43 12A1 1 0 0 1 44 37z"></path><path fill="#065387" d="M31.21,30.21A29.91,29.91,0,0,1,10,39H43V14l-4.17,3.25A29.88,29.88,0,0,1,31.21,30.21Z" opacity=".5"></path></svg>